<svg id="Layer_1" enable-background="new 0 0 256 256" height="512" viewBox="0 0 256 256" width="512" xmlns="http://www.w3.org/2000/svg"><g><g><g><g><path d="m182.339 163.16v.696c0 3.959-3.213 7.173-7.173 7.173h-94.333c-3.959 0-7.173-3.213-7.173-7.173v-.696c0-17.243 8.026-32.614 20.549-42.562.846-.674 1.707-1.32 2.589-1.937 5.559-3.909 11.885-6.8 18.706-8.406 4.009-.94 8.191-1.442 12.487-1.442h.014c4.332 0 8.55.509 12.588 1.463 6.785 1.614 13.068 4.497 18.606 8.385.882.617 1.75 1.262 2.589 1.937 1.621 1.284 3.17 2.668 4.634 4.131 9.835 9.834 15.917 23.419 15.917 38.431z" fill="#ffe2e2"/><path d="m136.042 109.407c-1.501.215-2.992.504-4.45.847-6.82 1.608-13.146 4.504-18.712 8.407-.879.622-1.737 1.265-2.584 1.941-12.524 9.94-20.556 25.317-20.556 42.56v.697c0 3.957 3.217 7.174 7.174 7.174h-16.084c-3.957 0-7.174-3.217-7.174-7.174v-.697c0-17.243 8.032-32.62 20.556-42.56.847-.675 1.705-1.319 2.584-1.941 5.565-3.903 11.892-6.798 18.712-8.407 4.01-.943 8.192-1.437 12.482-1.437h.021c2.734.001 5.415.204 8.031.59z" fill="#ffefee"/><path d="m89.616 59.669v10.737c0 21.111 17.273 38.384 38.384 38.384 21.111 0 38.383-17.273 38.383-38.384v-10.737c0-21.104-17.038-38.25-38.142-38.383-21.292-.134-38.625 17.09-38.625 38.383z" fill="#ffbb98"/><path d="m182.344 163.162v.697c0 3.957-3.217 7.174-7.174 7.174h-16.085c3.957 0 7.174-3.217 7.174-7.174v-.697c0-15.012-6.091-28.598-15.923-38.431-1.458-1.469-3.013-2.852-4.632-4.128-.836-.675-1.705-1.319-2.584-1.941-5.544-3.882-11.827-6.766-18.604-8.385-1.491-.354-3.013-.643-4.557-.869 2.627-.386 5.308-.59 8.032-.59h.021c4.332 0 8.546.504 12.589 1.458 6.777 1.619 13.061 4.504 18.604 8.385.879.622 1.748 1.265 2.584 1.941 1.619 1.276 3.174 2.659 4.632 4.128 9.833 9.833 15.923 23.419 15.923 38.432z" fill="#ffcfcf"/><path d="m140.595 110.277-5.538 12.695h-13.619l-5.933-12.717c4.009-.94 8.191-1.442 12.487-1.442h.014c4.333.001 8.551.51 12.589 1.464z" fill="#87828e"/><path d="m121.437 122.972-9.69 48.057h32.69l-9.379-48.057z" fill="#796e84"/><path d="m136.042 107.927c-2.595.568-5.286.858-8.042.858-21.114 0-38.388-17.264-38.388-38.377v-10.745c0-21.21 17.21-38.378 38.399-38.378h.236c2.681.021 5.286.311 7.806.847-17.339 3.689-30.357 19.087-30.357 37.53v10.744c0 18.359 13.061 33.801 30.346 37.521z" fill="#ffcaa6"/><path d="m166.388 59.663v10.744c0 10.562-4.321 20.148-11.281 27.108-6.948 6.959-16.556 11.27-27.108 11.27-2.756 0-5.447-.289-8.042-.858 7.345-1.576 13.929-5.265 19.066-10.412 6.959-6.959 11.281-16.546 11.281-27.108v-10.744c0-18.422-12.996-33.842-30.335-37.53 2.595-.558 5.286-.847 8.042-.847h.236c21.102.128 38.141 17.275 38.141 38.377z" fill="#ffaa80"/><path d="m159.424 6.739h-33.912c-10.887 0-19.921 7.909-21.684 18.294-.325-5.557-4.92-9.966-10.559-9.966-5.849 0-10.59 4.741-10.59 10.59v22.659c0 1.855 1.504 3.359 3.359 3.359h83.924c1.855 0 3.359-1.504 3.359-3.359v-27.68c0-7.675-6.222-13.897-13.897-13.897z" fill="#b76c6c"/></g></g><path d="m70.214 55.6h-61.366c-1.901 0-3.442 1.541-3.442 3.442v52.782c0 1.901 1.541 3.442 3.442 3.442h48.241l10.476 12.625c2.058 2.48 6.091 1.025 6.091-2.198v-13.869-6.426-46.356c.001-1.901-1.54-3.442-3.442-3.442z" fill="#ffe2e2"/><path d="m59.889 55.6c1.9 0 3.442 1.542 3.442 3.442v63.745l4.234 5.102c2.058 2.485 6.093 1.026 6.093-2.196v-66.65c0-1.9-1.542-3.442-3.442-3.442h-10.327z" fill="#ffcfcf"/><path d="m5.404 59.042v52.784c0 1.9 1.542 3.442 3.442 3.442h10.327c-1.9 0-3.442-1.542-3.442-3.442v-52.784c0-1.9 1.542-3.442 3.442-3.442h-10.326c-1.901 0-3.443 1.542-3.443 3.442z" fill="#ffefee"/><path d="m185.786 55.6h61.366c1.901 0 3.442 1.541 3.442 3.442v52.782c0 1.901-1.541 3.442-3.442 3.442h-48.241l-10.476 12.625c-2.058 2.48-6.091 1.025-6.091-2.198v-13.869-6.426-46.356c-.001-1.901 1.54-3.442 3.442-3.442z" fill="#ffe2e2"/><path d="m196.111 55.6c-1.9 0-3.442 1.542-3.442 3.442v63.745l-4.234 5.102c-2.058 2.485-6.093 1.026-6.093-2.196v-66.65c0-1.9 1.542-3.442 3.442-3.442h10.327z" fill="#ffcfcf"/><path d="m250.596 59.042v52.784c0 1.9-1.542 3.442-3.442 3.442h-10.327c1.9 0 3.442-1.542 3.442-3.442v-52.784c0-1.9-1.542-3.442-3.442-3.442h10.327c1.9 0 3.442 1.542 3.442 3.442z" fill="#ffefee"/><path d="m97.769 244.275v.44c0 2.506-2.034 4.54-4.54 4.54h-59.713c-2.506 0-4.54-2.034-4.54-4.54v-.44c0-10.915 5.08-20.644 13.008-26.942.536-.427 1.081-.835 1.639-1.226 3.519-2.474 7.523-4.304 11.841-5.321 2.538-.595 5.185-.913 7.904-.913h.009c2.742 0 5.412.322 7.968.926 4.295 1.022 8.272 2.847 11.777 5.308.558.39 1.108.799 1.639 1.226 1.026.813 2.007 1.689 2.933 2.615 6.225 6.226 10.075 14.825 10.075 24.327z" fill="#5fcdff"/><path d="m39.076 178.765v6.796c0 13.363 10.934 24.297 24.297 24.297 13.363 0 24.297-10.934 24.297-24.297v-6.796c0-13.359-10.785-24.212-24.144-24.296-13.479-.085-24.45 10.818-24.45 24.296z" fill="#ffbb98"/><path d="m97.773 244.279v.44c0 2.506-2.036 4.542-4.541 4.542h-14.682c2.506 0 4.541-2.036 4.541-4.542v-.44c0-9.504-3.856-18.107-10.081-24.332-.92-.92-1.909-1.801-2.926-2.613-.538-.431-1.086-.832-1.644-1.223-3.504-2.466-7.478-4.287-11.774-5.305-.215-.049-.431-.098-.646-.147 2.369-.509 4.825-.783 7.351-.783h.01c2.741 0 5.413.323 7.967.93 4.297 1.018 8.271 2.838 11.774 5.305.558.391 1.106.793 1.644 1.223 1.018.812 2.006 1.693 2.926 2.613 6.225 6.225 10.081 14.828 10.081 24.332z" fill="#30b6ff"/><path d="m70.7 210.658c-.186.039-.372.088-.558.127-4.316 1.018-8.319 2.848-11.843 5.324-.558.391-1.096.793-1.635 1.223-7.928 6.293-13.008 16.032-13.008 26.945v.44c0 2.506 2.036 4.542 4.541 4.542h-14.68c-2.506 0-4.541-2.036-4.541-4.542v-.44c0-10.913 5.08-20.652 13.008-26.945.538-.431 1.077-.832 1.635-1.223 3.524-2.476 7.527-4.306 11.843-5.324 2.545-.597 5.187-.91 7.908-.91h.01c2.505 0 4.962.274 7.32.783z" fill="#73d7f9"/><path d="m70.71 208.71c-2.32.744-4.786 1.145-7.341 1.145-13.36 0-24.293-10.933-24.293-24.293v-6.803c0-13.419 10.884-24.293 24.283-24.293h.166c2.506.02 4.933.411 7.204 1.125-9.837 3.103-16.972 12.303-16.972 23.167v6.803c.001 10.807 7.156 20.027 16.953 23.149z" fill="#ffcaa6"/><path d="m87.672 178.76v6.803c0 6.685-2.731 12.753-7.135 17.158-4.404 4.404-10.483 7.135-17.167 7.135-2.555 0-5.021-.401-7.341-1.145 3.749-1.184 7.106-3.269 9.827-5.99 4.404-4.404 7.135-10.473 7.135-17.158v-6.803c0-10.845-7.116-20.045-16.942-23.167 2.31-.734 4.767-1.125 7.311-1.125h.166c13.36.087 24.146 10.942 24.146 24.292z" fill="#ffaa80"/><path d="m83.264 145.261h-21.466c-6.891 0-12.61 5.007-13.726 11.58-.205-3.517-3.115-6.309-6.684-6.309-3.702 0-6.704 3.001-6.704 6.704v14.343c0 1.174.952 2.126 2.126 2.126h53.124c1.174 0 2.126-.952 2.126-2.126v-17.521c.001-4.859-3.938-8.797-8.796-8.797z" fill="#b76c6c"/><path d="m227.021 244.275v.44c0 2.506-2.034 4.54-4.54 4.54h-59.713c-2.506 0-4.54-2.034-4.54-4.54v-.44c0-10.915 5.08-20.644 13.008-26.942.536-.427 1.081-.835 1.639-1.226 3.519-2.474 7.523-4.304 11.841-5.321 2.538-.595 5.185-.913 7.904-.913h.009c2.742 0 5.412.322 7.968.926 4.295 1.022 8.272 2.847 11.777 5.308.558.39 1.108.799 1.639 1.226 1.026.813 2.007 1.689 2.933 2.615 6.225 6.226 10.075 14.825 10.075 24.327z" fill="#5fcdff"/><path d="m168.327 178.765v6.796c0 13.363 10.934 24.297 24.297 24.297 13.363 0 24.297-10.934 24.297-24.297v-6.796c0-13.359-10.785-24.212-24.144-24.296-13.478-.085-24.45 10.818-24.45 24.296z" fill="#ffbb98"/><path d="m227.024 244.279v.44c0 2.506-2.036 4.542-4.541 4.542h-14.681c2.506 0 4.541-2.036 4.541-4.542v-.44c0-9.504-3.856-18.107-10.081-24.332-.92-.92-1.909-1.801-2.926-2.613-.538-.431-1.086-.832-1.644-1.223-3.504-2.466-7.478-4.287-11.774-5.305-.215-.049-.431-.098-.646-.147 2.369-.509 4.825-.783 7.351-.783h.01c2.741 0 5.413.323 7.967.93 4.297 1.018 8.271 2.838 11.774 5.305.558.391 1.106.793 1.644 1.223 1.018.812 2.006 1.693 2.926 2.613 6.224 6.225 10.08 14.828 10.08 24.332z" fill="#30b6ff"/><path d="m199.952 210.658c-.186.039-.372.088-.558.127-4.316 1.018-8.319 2.848-11.843 5.324-.558.391-1.096.793-1.635 1.223-7.928 6.293-13.008 16.032-13.008 26.945v.44c0 2.506 2.036 4.542 4.541 4.542h-14.681c-2.506 0-4.541-2.036-4.541-4.542v-.44c0-10.913 5.08-20.652 13.008-26.945.538-.431 1.077-.832 1.635-1.223 3.524-2.476 7.527-4.306 11.843-5.324 2.545-.597 5.188-.91 7.908-.91h.01c2.505 0 4.962.274 7.321.783z" fill="#73d7f9"/><path d="m199.961 208.71c-2.32.744-4.786 1.145-7.341 1.145-13.36 0-24.293-10.933-24.293-24.293v-6.803c0-13.419 10.884-24.293 24.283-24.293h.166c2.506.02 4.933.411 7.204 1.125-9.837 3.103-16.972 12.303-16.972 23.167v6.803c.001 10.807 7.156 20.027 16.953 23.149z" fill="#ffcaa6"/><path d="m216.923 178.76v6.803c0 6.685-2.731 12.753-7.135 17.158-4.404 4.404-10.482 7.135-17.167 7.135-2.555 0-5.021-.401-7.341-1.145 3.749-1.184 7.106-3.269 9.827-5.99 4.404-4.404 7.135-10.473 7.135-17.158v-6.803c0-10.845-7.116-20.045-16.942-23.167 2.31-.734 4.767-1.125 7.311-1.125h.166c13.36.087 24.146 10.942 24.146 24.292z" fill="#ffaa80"/><path d="m212.515 145.261h-21.466c-6.891 0-12.61 5.007-13.726 11.58-.205-3.517-3.115-6.309-6.684-6.309-3.702 0-6.704 3.001-6.704 6.704v14.343c0 1.174.952 2.126 2.126 2.126h53.124c1.174 0 2.126-.952 2.126-2.126v-17.521c.001-4.859-3.937-8.797-8.796-8.797z" fill="#b76c6c"/></g><g fill="#5f266d"><path d="m153.202 30.503h-2.955c-2.209 0-4 1.791-4 4s1.791 4 4 4h2.955c2.209 0 4-1.791 4-4s-1.791-4-4-4z"/><path d="m135.247 30.503h-11c-2.209 0-4 1.791-4 4s1.791 4 4 4h11c2.209 0 4-1.791 4-4s-1.791-4-4-4z"/><path d="m147.273 84.229c7.554 0 13.699-6.145 13.699-13.698s-6.146-13.699-13.699-13.699c-6.162 0-11.384 4.091-13.1 9.699h-12.347c-1.716-5.608-6.938-9.699-13.1-9.699-7.554 0-13.699 6.146-13.699 13.699s6.146 13.698 13.699 13.698c6.162 0 11.384-4.091 13.1-9.698h12.347c1.716 5.608 6.938 9.698 13.1 9.698zm0-19.397c3.143 0 5.699 2.557 5.699 5.699s-2.557 5.698-5.699 5.698-5.699-2.557-5.699-5.698c0-3.142 2.557-5.699 5.699-5.699zm-38.546 11.397c-3.143 0-5.699-2.557-5.699-5.698 0-3.143 2.557-5.699 5.699-5.699s5.699 2.557 5.699 5.699-2.557 5.698-5.699 5.698z"/><path d="m64.487 130.445c1.454 1.752 3.53 2.701 5.689 2.701.853 0 1.719-.148 2.564-.453 2.985-1.078 4.915-3.826 4.915-7.001v-66.65c0-4.104-3.338-7.442-7.441-7.442h-61.366c-4.104 0-7.441 3.339-7.441 7.442v52.782c0 4.104 3.338 7.442 7.441 7.442h46.362zm-55.081-70.845h60.25v64.547l-9.489-11.435c-.76-.915-1.888-1.445-3.078-1.445h-47.683z"/><path d="m247.152 51.6h-61.367c-4.104 0-7.441 3.339-7.441 7.442v66.65c0 3.175 1.93 5.923 4.915 7.001.846.305 1.711.453 2.564.453 2.159 0 4.235-.95 5.689-2.701l9.277-11.179h46.362c4.104 0 7.441-3.339 7.441-7.442v-52.782c.002-4.104-3.336-7.442-7.44-7.442zm-.558 59.667h-47.683c-1.19 0-2.318.53-3.078 1.445l-9.489 11.435v-64.547h60.25z"/><path d="m208.197 209.167c1.572-1.044 3.053-2.252 4.419-3.618 10.746-10.744 7.833-23.34 8.308-26.788 0-.433-.014-.867-.034-1.302 2.551-.74 4.422-3.094 4.422-5.88v-17.521c0-7.057-5.74-12.797-12.796-12.797h-21.467c-2.944 0-5.735.708-8.201 1.973-5.951-16.406-19.047-29.342-35.511-35.132 13.52-6.983 23.053-21.143 23.053-37.695v-10.744c0-1.336-.072-2.671-.197-4 3.951-.123 7.13-3.367 7.13-7.348v-27.68c0-9.868-8.028-17.896-17.897-17.896h-33.911c-9.304 0-17.568 4.864-22.17 12.378-2.625-2.514-6.182-4.051-10.073-4.051-8.045 0-14.591 6.546-14.591 14.591v22.658c0 3.98 3.179 7.225 7.13 7.348-.125 1.329-.197 2.664-.197 4v10.744c0 16.407 9.381 30.656 23.057 37.695-15.63 5.485-28.402 17.484-34.746 33.159h-12.127c-5.827 0-11.063 2.767-14.351 7.157-1.728-1.19-3.817-1.886-6.06-1.886-5.901 0-10.703 4.802-10.703 10.703v14.344c0 2.788 1.873 5.142 4.426 5.881-.02.434-.034.868-.034 1.301.501 2.509-3.147 19.903 12.719 30.406-13.433 5.968-22.82 19.382-22.82 35.108v.44c0 4.709 3.831 8.54 8.54 8.54h59.714c4.709 0 8.54-3.831 8.54-8.54-.032-.1 1.182-24.874-22.824-35.548 1.572-1.044 3.053-2.252 4.42-3.619 10.745-10.745 7.832-23.34 8.307-26.788 0-.433-.014-.867-.034-1.302 1.38-.4 2.562-1.271 3.355-2.431h66.01c.794 1.161 1.977 2.032 3.359 2.432-.02.434-.034.867-.034 1.301.482 2.413-3.115 19.923 12.719 30.406-13.453 5.977-22.819 19.389-22.819 35.108v.44c0 4.709 3.831 8.54 8.54 8.54h59.713c4.709 0 8.54-3.831 8.54-8.54v-.44c0-15.321-8.985-28.954-22.824-35.107zm-121.518-183.51c0-3.634 2.957-6.591 6.591-6.591 3.479 0 6.362 2.724 6.565 6.2.119 2.031 1.743 3.649 3.773 3.761 2.038.105 3.822-1.318 4.163-3.325 1.472-8.67 8.933-14.963 17.741-14.963h33.911c5.457 0 9.897 4.439 9.897 9.896v27.039c-16.266 0-66.27 0-82.643 0v-22.017zm6.932 44.75v-10.744c0-1.333.085-2.666.239-3.988h68.3c.154 1.322.239 2.655.239 3.988v10.744c0 9.139-3.59 17.762-10.112 24.282-21.496 21.531-58.666 6.385-58.666-24.282zm41.3 42.897-2.472 5.669h-8.452l-2.66-5.702c4.775-.636 9.083-.579 13.584.033zm-50.045 109.473c5.741 5.742 8.903 13.377 8.903 21.498-.025.1.165.98-.54.98h-59.713c-.707 0-.515-.878-.54-.98 0-27.011 32.782-40.606 51.89-21.498zm-7.157-22.884c-3.846 3.845-8.938 5.963-14.34 5.963-11.189 0-20.293-9.104-20.293-20.293.028-5.59-.049-5.85.055-7.857h40.485c.464 8.859.385 15.893-5.907 22.187zm10.352-30.188c-31.419 0-38.36 0-39.638 0-.21 0-.268 0-.255 0-.671 0-2.911 0-9.482 0v-12.47c0-1.49 1.213-2.703 2.703-2.703 1.426 0 2.607 1.116 2.69 2.541.118 2.031 1.742 3.649 3.773 3.762 2.009.092 3.822-1.319 4.163-3.324.812-4.78 4.927-8.25 9.783-8.25h21.466c2.645 0 4.797 2.152 4.797 4.797zm8-2.677v-12.971c0-7.057-5.74-12.797-12.797-12.797h-.599c6.011-12.45 17.041-22.116 30.641-26.259l3.951 8.469-8.783 43.558zm20.573 0 8.077-40.056h7.052l7.817 40.056zm43.302-9.793v9.793h-12.204l-8.509-43.599 3.653-8.375c16.135 4.996 28.282 17.567 33.123 32.921-1.579-.918-3.411-1.444-5.358-1.444-5.904.001-10.705 4.803-10.705 10.704zm8 12.47v-12.47c0-1.49 1.213-2.703 2.704-2.703 1.425 0 2.606 1.117 2.69 2.543.119 2.03 1.743 3.648 3.773 3.76 2.023.092 3.822-1.319 4.163-3.324.322-1.897 1.171-3.583 2.374-4.933.019-.021.039-.042.058-.063 1.825-2.013 4.453-3.254 7.351-3.254h21.467c2.645 0 4.796 2.152 4.796 4.797v15.647c-31.42 0-38.361 0-39.638 0-.21 0-.268 0-.255 0-.671 0-2.912 0-9.483 0zm4.392 15.858c.028-5.613-.049-5.842.055-7.857h40.485c.467 8.927.359 15.918-5.908 22.188-12.753 12.749-34.632 3.698-34.632-14.331zm50.693 59.153c0 .298-.242.54-.54.54-62.558-.251-60.253.512-60.253-.54v-.44c0-26.837 32.622-40.744 51.891-21.498 5.74 5.741 8.902 13.376 8.902 21.498z"/></g></g></svg>